{
  "accessors": [
    {
      "bufferView": 2,
      "componentType": 5126,
      "count": 65532,
      "max": [
        730.494384765625,
        10.448551177978516,
        1025.35107421875
      ],
      "min": [
        -575.2174072265625,
        -1857.3111572265625,
        -288.88204956054688
      ],
      "type": "VEC3"
    },
    {
      "bufferView": 2,
      "byteOffset": 786384,
      "componentType": 5126,
      "count": 65532,
      "max": [
        0.99998974800109863,
        0.99999964237213135,
        0.99998009204864502
      ],
      "min": [
        -0.9999995231628418,
        -0.99999797344207764,
        -0.99989521503448486
      ],
      "type": "VEC3"
    },
    {
      "bufferView": 3,
      "componentType": 5126,
      "count": 65532,
      "max": [
        0.99998962879180908,
        0.99999362230300903,
        0.99996912479400635,
        1
      ],
      "min": [
        -0.99996769428253174,
        -0.99990177154541016,
        -0.99999827146530151,
        -1
      ],
      "type": "VEC4"
    },
    {
      "bufferView": 1,
      "componentType": 5126,
      "count": 65532,
      "max": [
        0.9979739785194397,
        0.99929201602935791
      ],
      "min": [
        0.00070799997774884105,
        0.54974699020385742
      ],
      "type": "VEC2"
    },
    {
      "bufferView": 0,
      "componentType": 5125,
      "count": 344052,
      "max": [
        65531
      ],
      "min": [
        0
      ],
      "type": "SCALAR"
    },
    {
      "bufferView": 2,
      "byteOffset": 1572768,
      "componentType": 5126,
      "count": 65532,
      "max": [
        640.9019775390625,
        10.214515686035156,
        917.1710205078125
      ],
      "min": [
        -544.418701171875,
        -2258.767578125,
        -240.07525634765625
      ],
      "type": "VEC3"
    },
    {
      "bufferView": 2,
      "byteOffset": 2359152,
      "componentType": 5126,
      "count": 65532,
      "max": [
        0.99986684322357178,
        0.99999505281448364,
        0.99992311000823975
      ],
      "min": [
        -0.99997323751449585,
        -0.99999338388442993,
        -0.99998903274536133
      ],
      "type": "VEC3"
    },
    {
      "bufferView": 3,
      "byteOffset": 1048512,
      "componentType": 5126,
      "count": 65532,
      "max": [
        0.99999117851257324,
        0.99999743700027466,
        0.99999213218688965,
        1
      ],
      "min": [
        -0.99992895126342773,
        -0.99996441602706909,
        -0.99996089935302734,
        -1
      ],
      "type": "VEC4"
    },
    {
      "bufferView": 1,
      "byteOffset": 524256,
      "componentType": 5126,
      "count": 65532,
      "max": [
        0.98039799928665161,
        0.93561500310897827
      ],
      "min": [
        0.0063680000603199005,
        0.1075109988451004
      ],
      "type": "VEC2"
    },
    {
      "bufferView": 0,
      "byteOffset": 1376208,
      "componentType": 5125,
      "count": 335745,
      "max": [
        65531
      ],
      "min": [
        0
      ],
      "type": "SCALAR"
    },
    {
      "bufferView": 2,
      "byteOffset": 3145536,
      "componentType": 5126,
      "count": 65532,
      "max": [
        681.38848876953125,
        10.481085777282715,
        1026.08544921875
      ],
      "min": [
        -576.25439453125,
        -2069.6953125,
        -306.26388549804688
      ],
      "type": "VEC3"
    },
    {
      "bufferView": 2,
      "byteOffset": 3931920,
      "componentType": 5126,
      "count": 65532,
      "max": [
        0.9999992847442627,
        0.99999934434890747,
        0.99999958276748657
      ],
      "min": [
        -0.99999344348907471,
        -0.99998629093170166,
        -0.99996185302734375
      ],
      "type": "VEC3"
    },
    {
      "bufferView": 3,
      "byteOffset": 2097024,
      "componentType": 5126,
      "count": 65532,
      "max": [
        0.99993419647216797,
        0.99997329711914062,
        0.99999475479125977,
        1
      ],
      "min": [
        -0.9999387264251709,
        -0.99998319149017334,
        -0.99995326995849609,
        1
      ],
      "type": "VEC4"
    },
    {
      "bufferView": 1,
      "byteOffset": 1048512,
      "componentType": 5126,
      "count": 65532,
      "max": [
        0.97354602813720703,
        0.90377700328826904
      ],
      "min": [
        0.014150000177323818,
        0.00032399999327026308
      ],
      "type": "VEC2"
    },
    {
      "bufferView": 0,
      "byteOffset": 2719188,
      "componentType": 5125,
      "count": 325512,
      "max": [
        65531
      ],
      "min": [
        0
      ],
      "type": "SCALAR"
    },
    {
      "bufferView": 2,
      "byteOffset": 4718304,
      "componentType": 5126,
      "count": 65532,
      "max": [
        740.5452880859375,
        10.188608169555664,
        896.67596435546875
      ],
      "min": [
        -515.60699462890625,
        -2057.05908203125,
        -318.63330078125
      ],
      "type": "VEC3"
    },
    {
      "bufferView": 2,
      "byteOffset": 5504688,
      "componentType": 5126,
      "count": 65532,
      "max": [
        0.99998730421066284,
        0.99999707937240601,
        0.99997484683990479
      ],
      "min": [
        -0.99994176626205444,
        -0.99998456239700317,
        -0.99998903274536133
      ],
      "type": "VEC3"
    },
    {
      "bufferView": 3,
      "byteOffset": 3145536,
      "componentType": 5126,
      "count": 65532,
      "max": [
        0.99997466802597046,
        0.99997532367706299,
        0.99998080730438232,
        1
      ],
      "min": [
        -0.99988269805908203,
        -0.99999332427978516,
        -0.99997472763061523,
        -1
      ],
      "type": "VEC4"
    },
    {
      "bufferView": 1,
      "byteOffset": 1572768,
      "componentType": 5126,
      "count": 65532,
      "max": [
        0.99754798412322998,
        0.94269102811813354
      ],
      "min": [
        0.064384996891021729,
        0.0002680000034160912
      ],
      "type": "VEC2"
    },
    {
      "bufferView": 0,
      "byteOffset": 4021236,
      "componentType": 5125,
      "count": 312624,
      "max": [
        65531
      ],
      "min": [
        0
      ],
      "type": "SCALAR"
    },
    {
      "bufferView": 2,
      "byteOffset": 6291072,
      "componentType": 5126,
      "count": 42498,
      "max": [
        742.91827392578125,
        10.217144012451172,
        939.6064453125
      ],
      "min": [
        -539.29803466796875,
        -2072.478515625,
        -318.63330078125
      ],
      "type": "VEC3"
    },
    {
      "bufferView": 2,
      "byteOffset": 6801048,
      "componentType": 5126,
      "count": 42498,
      "max": [
        0.99999892711639404,
        0.99999552965164185,
        0.99996358156204224
      ],
      "min": [
        -0.99999147653579712,
        -0.99994182586669922,
        -0.99996185302734375
      ],
      "type": "VEC3"
    },
    {
      "bufferView": 3,
      "byteOffset": 4194048,
      "componentType": 5126,
      "count": 42498,
      "max": [
        0.99991673231124878,
        0.99998390674591064,
        0.9999920129776001,
        1
      ],
      "min": [
        -0.99996352195739746,
        -0.99997544288635254,
        -0.99999654293060303,
        1
      ],
      "type": "VEC4"
    },
    {
      "bufferView": 1,
      "byteOffset": 2097024,
      "componentType": 5126,
      "count": 42498,
      "max": [
        0.99266302585601807,
        0.90236198902130127
      ],
      "min": [
        0.00070799997774884105,
        0.00027399999089539051
      ],
      "type": "VEC2"
    },
    {
      "bufferView": 0,
      "byteOffset": 5271732,
      "componentType": 5125,
      "count": 182055,
      "max": [
        42497
      ],
      "min": [
        0
      ],
      "type": "SCALAR"
    }
  ],
  "asset": {
    "extras": {
      "author": "Kevin Shain (https://sketchfab.com/Laserdesign)",
      "license": "CC-BY-NC-4.0 (http://creativecommons.org/licenses/by-nc/4.0/)",
      "source": "https://sketchfab.com/3d-models/christmas-tree-3d-scan-df4028bb6eec4cad8a813dfa38e88d8d",
      "title": "Christmas Tree 3D Scan"
    },
    "generator": "Sketchfab-7.27.0",
    "version": "2.0"
  },
  "bufferViews": [
    {
      "buffer": 0,
      "byteLength": 5999952,
      "byteOffset": 0,
      "name": "floatBufferViews",
      "target": 34963
    },
    {
      "buffer": 0,
      "byteLength": 2437008,
      "byteOffset": 5999952,
      "byteStride": 8,
      "name": "floatBufferViews",
      "target": 34962
    },
    {
      "buffer": 0,
      "byteLength": 7311024,
      "byteOffset": 8436960,
      "byteStride": 12,
      "name": "floatBufferViews",
      "target": 34962
    },
    {
      "buffer": 0,
      "byteLength": 4874016,
      "byteOffset": 15747984,
      "byteStride": 16,
      "name": "floatBufferViews",
      "target": 34962
    }
  ],
  "buffers": [
    {
      "byteLength": 20622000,
      "uri": "scene.bin"
    }
  ],
  "images": [
    {
      "uri": "textures/material_0_baseColor.jpeg"
    }
  ],
  "materials": [
    {
      "doubleSided": true,
      "name": "material_0",
      "pbrMetallicRoughness": {
        "baseColorFactor": [
          1,
          1,
          1,
          1
        ],
        "baseColorTexture": {
          "index": 0,
          "texCoord": 0
        },
        "metallicFactor": 0,
        "roughnessFactor": 0.84584603660000002
      }
    }
  ],
  "meshes": [
    {
      "primitives": [
        {
          "attributes": {
            "NORMAL": 1,
            "POSITION": 0,
            "TANGENT": 2,
            "TEXCOORD_0": 3
          },
          "indices": 4,
          "material": 0,
          "mode": 4
        }
      ]
    },
    {
      "primitives": [
        {
          "attributes": {
            "NORMAL": 6,
            "POSITION": 5,
            "TANGENT": 7,
            "TEXCOORD_0": 8
          },
          "indices": 9,
          "material": 0,
          "mode": 4
        }
      ]
    },
    {
      "primitives": [
        {
          "attributes": {
            "NORMAL": 11,
            "POSITION": 10,
            "TANGENT": 12,
            "TEXCOORD_0": 13
          },
          "indices": 14,
          "material": 0,
          "mode": 4
        }
      ]
    },
    {
      "primitives": [
        {
          "attributes": {
            "NORMAL": 16,
            "POSITION": 15,
            "TANGENT": 17,
            "TEXCOORD_0": 18
          },
          "indices": 19,
          "material": 0,
          "mode": 4
        }
      ]
    },
    {
      "primitives": [
        {
          "attributes": {
            "NORMAL": 21,
            "POSITION": 20,
            "TANGENT": 22,
            "TEXCOORD_0": 23
          },
          "indices": 24,
          "material": 0,
          "mode": 4
        }
      ]
    }
  ],
  "nodes": [
    {
      "children": [
        1
      ],
      "name": "RootNode (gltf orientation matrix)",
      "rotation": [
        -0.70710678118654746,
        -0,
        -0,
        0.70710678118654757
      ]
    },
    {
      "children": [
        2
      ],
      "matrix": [
        1,
        0,
        0,
        0,
        0,
        0,
        -1,
        0,
        0,
        1,
        0,
        0,
        0,
        -1477.8704833984375,
        -770.4190673828125,
        1
      ],
      "name": "RootNode (model correction matrix)"
    },
    {
      "children": [
        3,
        4,
        5,
        6,
        7
      ],
      "name": "Christmas Tree Color mm.obj.cleaner.materialmerger.gles"
    },
    {
      "mesh": 0,
      "name": ""
    },
    {
      "mesh": 1,
      "name": ""
    },
    {
      "mesh": 2,
      "name": ""
    },
    {
      "mesh": 3,
      "name": ""
    },
    {
      "mesh": 4,
      "name": ""
    }
  ],
  "samplers": [
    {
      "magFilter": 9729,
      "minFilter": 9987,
      "wrapS": 10497,
      "wrapT": 10497
    }
  ],
  "scene": 0,
  "scenes": [
    {
      "name": "OSG_Scene",
      "nodes": [
        0
      ]
    }
  ],
  "textures": [
    {
      "sampler": 0,
      "source": 0
    }
  ]
}

