{
  "accessors": [
    {
      "bufferView": 2,
      "componentType": 5126,
      "count": 1523,
      "max": [
        0.04317537322640419,
        0.060149684548377991,
        0.039189606904983521
      ],
      "min": [
        -0.039265643805265427,
        -0.032913312315940857,
        -0.04325142502784729
      ],
      "type": "VEC3"
    },
    {
      "bufferView": 2,
      "byteOffset": 18276,
      "componentType": 5126,
      "count": 1523,
      "max": [
        1,
        1,
        1
      ],
      "min": [
        -1,
        -0.99943661689758301,
        -1
      ],
      "type": "VEC3"
    },
    {
      "bufferView": 3,
      "componentType": 5126,
      "count": 1523,
      "max": [
        0.99947881698608398,
        1,
        0.99786502122879028,
        1
      ],
      "min": [
        -0.99943673610687256,
        -0.99999803304672241,
        -1,
        1
      ],
      "type": "VEC4"
    },
    {
      "bufferView": 1,
      "componentType": 5126,
      "count": 1523,
      "max": [
        0.94786262512207031,
        0.99989497661590576
      ],
      "min": [
        0.00010499769996386021,
        0.00010499769996386021
      ],
      "type": "VEC2"
    },
    {
      "bufferView": 0,
      "componentType": 5125,
      "count": 7206,
      "max": [
        1522
      ],
      "min": [
        0
      ],
      "type": "SCALAR"
    },
    {
      "bufferView": 2,
      "byteOffset": 36552,
      "componentType": 5126,
      "count": 3047,
      "max": [
        0.032672658562660217,
        0.050015818327665329,
        0.017004884779453278
      ],
      "min": [
        -0.0280165895819664,
        -0.011085128411650658,
        -0.017364870756864548
      ],
      "type": "VEC3"
    },
    {
      "bufferView": 2,
      "byteOffset": 73116,
      "componentType": 5126,
      "count": 3047,
      "max": [
        1,
        1,
        1
      ],
      "min": [
        -1,
        -1,
        -1
      ],
      "type": "VEC3"
    },
    {
      "bufferView": 3,
      "byteOffset": 24368,
      "componentType": 5126,
      "count": 3047,
      "max": [
        1,
        1,
        1,
        1
      ],
      "min": [
        -0.99984699487686157,
        -1,
        -0.99999690055847168,
        1
      ],
      "type": "VEC4"
    },
    {
      "bufferView": 1,
      "byteOffset": 12184,
      "componentType": 5126,
      "count": 3047,
      "max": [
        0.97333025932312012,
        0.99971747398376465
      ],
      "min": [
        0.00028264420689083636,
        0.00028264420689083636
      ],
      "type": "VEC2"
    },
    {
      "bufferView": 0,
      "byteOffset": 28824,
      "componentType": 5125,
      "count": 14130,
      "max": [
        3046
      ],
      "min": [
        0
      ],
      "type": "SCALAR"
    }
  ],
  "asset": {
    "extras": {
      "author": "kons127 (https://sketchfab.com/kons127)",
      "license": "CC-BY-4.0 (http://creativecommons.org/licenses/by/4.0/)",
      "source": "https://sketchfab.com/3d-models/christmas-snowman-ball-b56099d70cad43248453ebc3615b0d40",
      "title": "Christmas Snowman Ball"
    },
    "generator": "Sketchfab-9.85.0",
    "version": "2.0"
  },
  "bufferViews": [
    {
      "buffer": 0,
      "byteLength": 85344,
      "byteOffset": 0,
      "name": "floatBufferViews",
      "target": 34963
    },
    {
      "buffer": 0,
      "byteLength": 36560,
      "byteOffset": 85344,
      "byteStride": 8,
      "name": "floatBufferViews",
      "target": 34962
    },
    {
      "buffer": 0,
      "byteLength": 109680,
      "byteOffset": 121904,
      "byteStride": 12,
      "name": "floatBufferViews",
      "target": 34962
    },
    {
      "buffer": 0,
      "byteLength": 73120,
      "byteOffset": 231584,
      "byteStride": 16,
      "name": "floatBufferViews",
      "target": 34962
    }
  ],
  "buffers": [
    {
      "byteLength": 304704,
      "uri": "scene.bin"
    }
  ],
  "images": [
    {
      "uri": "textures/Chrictmas_Snowman_Ball.001_baseColor.png"
    },
    {
      "uri": "textures/Chrictmas_Snowman_Ball.001_metallicRoughness.png"
    },
    {
      "uri": "textures/Chrictmas_Snowman_Ball.001_normal.png"
    },
    {
      "uri": "textures/Snowman_baseColor.png"
    },
    {
      "uri": "textures/Snowman_metallicRoughness.png"
    },
    {
      "uri": "textures/Snowman_normal.png"
    }
  ],
  "materials": [
    {
      "alphaMode": "BLEND",
      "doubleSided": true,
      "emissiveFactor": [
        0,
        0,
        0
      ],
      "name": "Chrictmas_Snowman_Ball.001",
      "normalTexture": {
        "index": 2,
        "scale": 1,
        "texCoord": 0
      },
      "pbrMetallicRoughness": {
        "baseColorFactor": [
          1,
          1,
          1,
          1
        ],
        "baseColorTexture": {
          "index": 0,
          "texCoord": 0
        },
        "metallicFactor": 1,
        "metallicRoughnessTexture": {
          "index": 1,
          "texCoord": 0
        },
        "roughnessFactor": 1
      }
    },
    {
      "doubleSided": true,
      "emissiveFactor": [
        0,
        0,
        0
      ],
      "name": "Snowman",
      "normalTexture": {
        "index": 5,
        "scale": 1,
        "texCoord": 0
      },
      "pbrMetallicRoughness": {
        "baseColorFactor": [
          1,
          1,
          1,
          1
        ],
        "baseColorTexture": {
          "index": 3,
          "texCoord": 0
        },
        "metallicFactor": 1,
        "metallicRoughnessTexture": {
          "index": 4,
          "texCoord": 0
        },
        "roughnessFactor": 1
      }
    }
  ],
  "meshes": [
    {
      "primitives": [
        {
          "attributes": {
            "NORMAL": 1,
            "POSITION": 0,
            "TANGENT": 2,
            "TEXCOORD_0": 3
          },
          "indices": 4,
          "material": 0,
          "mode": 4
        }
      ]
    },
    {
      "primitives": [
        {
          "attributes": {
            "NORMAL": 6,
            "POSITION": 5,
            "TANGENT": 7,
            "TEXCOORD_0": 8
          },
          "indices": 9,
          "material": 1,
          "mode": 4
        }
      ]
    }
  ],
  "nodes": [
    {
      "children": [
        1
      ],
      "name": "RootNode (gltf orientation matrix)",
      "rotation": [
        -0.70710678118654746,
        -0,
        -0,
        0.70710678118654757
      ]
    },
    {
      "children": [
        2
      ],
      "name": "RootNode (model correction matrix)"
    },
    {
      "children": [
        3
      ],
      "name": "root"
    },
    {
      "children": [
        4
      ],
      "matrix": [
        1,
        0,
        0,
        0,
        0,
        2.2204460492503131e-16,
        1,
        0,
        0,
        -1,
        2.2204460492503131e-16,
        0,
        0,
        0,
        0,
        1
      ],
      "name": "GLTF_SceneRootNode"
    },
    {
      "children": [
        5,
        6
      ],
      "name": "Christmas Snowman Ball_0"
    },
    {
      "mesh": 0,
      "name": ""
    },
    {
      "mesh": 1,
      "name": ""
    }
  ],
  "samplers": [
    {
      "magFilter": 9729,
      "minFilter": 9987,
      "wrapS": 10497,
      "wrapT": 10497
    }
  ],
  "scene": 0,
  "scenes": [
    {
      "name": "OSG_Scene",
      "nodes": [
        0
      ]
    }
  ],
  "textures": [
    {
      "sampler": 0,
      "source": 0
    },
    {
      "sampler": 0,
      "source": 1
    },
    {
      "sampler": 0,
      "source": 2
    },
    {
      "sampler": 0,
      "source": 3
    },
    {
      "sampler": 0,
      "source": 4
    },
    {
      "sampler": 0,
      "source": 5
    }
  ]
}

